<svg width="1048" height="860" viewBox="0 0 1048 860" fill="none" xmlns="http://www.w3.org/2000/svg">
<path d="M0 0V515.107H1048V0H0Z" fill="url(#paint0_linear_1_169)"/>
<mask id="mask0_1_169" style="mask-type:luminance" maskUnits="userSpaceOnUse" x="0" y="120" width="1048" height="631">
<path d="M0 120.167H1048V750.48H0V120.167Z" fill="white"/>
</mask>
<g mask="url(#mask0_1_169)">
<mask id="mask1_1_169" style="mask-type:luminance" maskUnits="userSpaceOnUse" x="0" y="120" width="1048" height="631">
<path d="M870.997 120.39C857.334 120.488 843.676 121.506 830.204 123.409C776.319 131.022 725.4 152.284 681.351 181.328C637.299 210.372 599.875 247.045 567.695 286.818C524.948 339.649 490.31 398.975 436.158 442.442C395.616 474.986 345.102 497.283 291.774 506.226C238.446 515.171 182.455 510.745 131.638 493.618C80.8204 476.493 35.3154 446.719 1.4148 408.473C0.933375 407.931 0.477058 407.367 0 406.819V750.485H1048V186.773C1031.28 170.032 1011.24 155.899 989.178 145.362C953.021 128.089 911.986 120.095 870.997 120.39Z" fill="white"/>
</mask>
<g mask="url(#mask1_1_169)">
<mask id="mask2_1_169" style="mask-type:luminance" maskUnits="userSpaceOnUse" x="0" y="120" width="1048" height="631">
<path d="M870.997 120.392C857.334 120.49 843.676 121.508 830.204 123.411C776.319 131.024 725.4 152.286 681.351 181.33C637.299 210.374 599.875 247.047 567.695 286.821C524.948 339.651 490.31 398.977 436.158 442.445C395.616 474.988 345.102 497.285 291.774 506.228C238.446 515.172 182.455 510.747 131.638 493.62C80.8204 476.494 35.3154 446.721 1.4148 408.475C0.933375 407.933 0.477058 407.37 0 406.822V750.488H1048V186.775C1031.28 170.034 1011.24 155.901 989.178 145.364C953.021 128.091 911.986 120.097 870.997 120.392Z" fill="white"/>
</mask>
<g mask="url(#mask2_1_169)">
<path d="M0 120.096V750.487H1048V120.096H0Z" fill="url(#paint1_linear_1_169)"/>
</g>
</g>
</g>
<mask id="mask3_1_169" style="mask-type:luminance" maskUnits="userSpaceOnUse" x="0" y="564" width="1048" height="296">
<path d="M234.985 564.212C225.257 564.126 215.527 564.509 205.852 565.42C151.562 570.539 102.905 591.576 55.2012 611.244C37.2488 618.646 18.864 625.98 0 632.295V860H1048V669.675C999.192 695.196 944.544 714.601 886.49 725.407C798.187 741.845 702.188 737.869 618.988 710.669C547.73 687.375 488.472 648.551 423.872 616.482C391.572 600.448 357.549 585.959 320.85 576.261C293.325 568.985 264.168 564.474 234.985 564.212Z" fill="white"/>
</mask>
<g mask="url(#mask3_1_169)">
<path d="M0 564.127V860.001H1048V564.127H0Z" fill="url(#paint2_linear_1_169)"/>
</g>
<defs>
<linearGradient id="paint0_linear_1_169" x1="524" y1="0" x2="524" y2="515.107" gradientUnits="userSpaceOnUse">
<stop offset="0.0165" stop-color="#065D2F"/>
<stop offset="1" stop-color="#DBEDD6"/>
</linearGradient>
<linearGradient id="paint1_linear_1_169" x1="524" y1="120.096" x2="524" y2="750.487" gradientUnits="userSpaceOnUse">
<stop offset="0.344" stop-color="#218A3D"/>
<stop offset="1" stop-color="#B1B1B1"/>
</linearGradient>
<linearGradient id="paint2_linear_1_169" x1="524" y1="564.127" x2="524" y2="860.001" gradientUnits="userSpaceOnUse">
<stop offset="0.345" stop-color="#228B3E"/>
<stop offset="1" stop-color="#B1B1B1"/>
</linearGradient>
</defs>
</svg>
