<svg width="1048" height="861" viewBox="0 0 1048 861" fill="none" xmlns="http://www.w3.org/2000/svg">
<mask id="mask0_2_21" style="mask-type:luminance" maskUnits="userSpaceOnUse" x="0" y="0" width="1048" height="861">
<path d="M0 0.771606H1048V861H0V0.771606Z" fill="white"/>
</mask>
<g mask="url(#mask0_2_21)">
<mask id="mask1_2_21" style="mask-type:luminance" maskUnits="userSpaceOnUse" x="0" y="1" width="1048" height="861">
<path d="M870.997 1.07497C857.334 1.20954 843.676 2.59832 830.204 5.19557C776.319 15.5859 725.4 44.6037 681.351 84.2419C637.299 123.88 599.875 173.93 567.695 228.211C524.948 300.312 490.31 381.278 436.158 440.601C395.616 485.015 345.102 515.445 291.774 527.65C238.446 539.858 182.455 533.818 131.638 510.443C80.8204 487.072 35.3154 446.438 1.4148 394.241C0.933375 393.501 0.477058 392.732 0 391.984V861.007H1048V91.673C1031.28 68.8253 1011.24 49.5371 989.178 35.1567C953.021 11.5824 911.986 0.672595 870.997 1.07497Z" fill="white"/>
</mask>
<g mask="url(#mask1_2_21)">
<mask id="mask2_2_21" style="mask-type:luminance" maskUnits="userSpaceOnUse" x="0" y="1" width="1048" height="861">
<path d="M870.997 1.07783C857.334 1.21241 843.676 2.60119 830.204 5.19843C776.319 15.5888 725.4 44.6066 681.351 84.2448C637.299 123.883 599.875 173.933 567.695 228.214C524.948 300.315 490.31 381.281 436.158 440.604C395.616 485.018 345.102 515.448 291.774 527.653C238.446 539.86 182.455 533.821 131.638 510.446C80.8204 487.074 35.3154 446.44 1.4148 394.244C0.933375 393.504 0.477058 392.735 0 391.987V861.01H1048V91.6759C1031.28 68.8282 1011.24 49.54 989.178 35.1596C953.021 11.5852 911.986 0.675464 870.997 1.07783Z" fill="white"/>
</mask>
<g mask="url(#mask2_2_21)">
<path d="M0 0.674438V861.009H1048V0.674438H0Z" fill="url(#paint0_linear_2_21)"/>
</g>
</g>
</g>
<defs>
<linearGradient id="paint0_linear_2_21" x1="524" y1="0.674438" x2="524" y2="861.009" gradientUnits="userSpaceOnUse">
<stop offset="0.345" stop-color="#218A3D"/>
<stop offset="1" stop-color="#B1B1B1"/>
</linearGradient>
</defs>
</svg>
